<?xml version="1.0" encoding="UTF-8" standalone="no"?>
<svg width="66px" height="68px" viewBox="0 0 66 68" version="1.1" xmlns="http://www.w3.org/2000/svg" xmlns:xlink="http://www.w3.org/1999/xlink" xmlns:sketch="http://www.bohemiancoding.com/sketch/ns">
    <!-- Generator: Sketch 3.3.3 (12081) - http://www.bohemiancoding.com/sketch -->
    <title>Symbols Icon</title>
    <desc>Created with Sketch.</desc>
    <defs>
        <linearGradient x1="50%" y1="0%" x2="50%" y2="100%" id="linearGradient-1">
            <stop stop-color="#E17EDE" offset="0%"></stop>
            <stop stop-color="#C877F2" offset="100%"></stop>
        </linearGradient>
        <filter x="-50%" y="-50%" width="200%" height="200%" filterUnits="objectBoundingBox" id="filter-2">
            <feOffset dx="0" dy="2" in="SourceAlpha" result="shadowOffsetOuter1"></feOffset>
            <feGaussianBlur stdDeviation="0" in="shadowOffsetOuter1" result="shadowBlurOuter1"></feGaussianBlur>
            <feColorMatrix values="0 0 0 0 1   0 0 0 0 1   0 0 0 0 1  0 0 0 0.14 0" in="shadowBlurOuter1" type="matrix" result="shadowMatrixOuter1"></feColorMatrix>
            <feOffset dx="0" dy="1" in="SourceAlpha" result="shadowOffsetOuter2"></feOffset>
            <feGaussianBlur stdDeviation="0" in="shadowOffsetOuter2" result="shadowBlurOuter2"></feGaussianBlur>
            <feColorMatrix values="0 0 0 0 1   0 0 0 0 1   0 0 0 0 1  0 0 0 0.14 0" in="shadowBlurOuter2" type="matrix" result="shadowMatrixOuter2"></feColorMatrix>
            <feOffset dx="0" dy="3" in="SourceAlpha" result="shadowOffsetInner1"></feOffset>
            <feGaussianBlur stdDeviation="0" in="shadowOffsetInner1" result="shadowBlurInner1"></feGaussianBlur>
            <feComposite in="shadowBlurInner1" in2="SourceAlpha" operator="arithmetic" k2="-1" k3="1" result="shadowInnerInner1"></feComposite>
            <feColorMatrix values="0 0 0 0 1   0 0 0 0 1   0 0 0 0 1  0 0 0 0.175 0" in="shadowInnerInner1" type="matrix" result="shadowMatrixInner1"></feColorMatrix>
            <feMerge>
                <feMergeNode in="shadowMatrixOuter1"></feMergeNode>
                <feMergeNode in="shadowMatrixOuter2"></feMergeNode>
                <feMergeNode in="SourceGraphic"></feMergeNode>
                <feMergeNode in="shadowMatrixInner1"></feMergeNode>
            </feMerge>
        </filter>
        <rect id="path-3" x="0" y="0" width="66" height="66" rx="8"></rect>
    </defs>
    <g id="Welcome" stroke="none" stroke-width="1" fill="none" fill-rule="evenodd" sketch:type="MSPage">
        <g id="Desktop-HD" sketch:type="MSArtboardGroup" transform="translate(-50.000000, -541.000000)">
            <g id="Instructions-—-You-can-remove-this" sketch:type="MSLayerGroup" transform="translate(50.000000, 50.000000)">
                <g id="Symbols-Icon-+-Symbols-—-Usage-+-Use-the-toolbar-Symb" transform="translate(0.000000, 428.000000)">
                    <g id="Symbols-Icon" transform="translate(0.000000, 63.000000)">
                        <g id="Rectangle-519" filter="url(#filter-2)">
                            <use stroke="#604B69" stroke-width="2" fill="url(#linearGradient-1)" fill-rule="evenodd" sketch:type="MSShapeGroup" xlink:href="#path-3"></use>
                            <use stroke="#7A6186" stroke-width="1" fill="none" xlink:href="#path-3"></use>
                        </g>
                        <path d="M30,14.3132371 C30.3305079,14.2533402 30.6639163,14.2017734 31,14.1587621 L31,14.1587621 L31,19.3221795 C30.6619392,19.3959864 30.328444,19.4820076 30,19.5797573 L30,29 L24.1005049,23.1005049 C21.5670033,25.6340066 20,29.1340066 20,33 C20,39.7022376 24.7096358,45.3044802 31,46.6778205 L31,52.8412379 C21.4111422,51.6140758 14,43.4225209 14,33.5 C14,27.8608538 16.3936895,22.7807841 20.2204296,19.2204296 L15,14 L30,14 L30,14.3132371 Z M39.6811346,52 C38.8130003,52.2899256 37.917681,52.5204544 37,52.6867629 L37,52.6867629 L37,52 L36,52 L36,37 L42.8491648,43.8491648 C45.992888,41.2818967 48,37.3753415 48,33 C48,26.2977624 43.2903642,20.6955198 37,19.3221795 L37,14.3132371 C46.0992656,15.9622688 53,23.9252575 53,33.5 C53,39.1391462 50.6063105,44.2192159 46.7795704,47.7795704 L51,52 L39.6811346,52 L39.6811346,52 Z" id="Sync-copy" stroke-opacity="0.204532399" stroke="#000000" fill="#FFFFFF" sketch:type="MSShapeGroup"></path>
                    </g>
                </g>
            </g>
        </g>
    </g>
</svg>
